<svg xmlns="http://www.w3.org/2000/svg" xmlns:xlink="http://www.w3.org/1999/xlink" width="194.458" height="141.726" viewBox="0 0 194.45799 141.72604"><title>Page 1</title><defs><path id="a" d="M68.19 78.034V.545H.364v77.489z"/><linearGradient x1="162.183" y1="4.16" x2="3.646" y2="162.697" id="d" gradientTransform="scale(1.17135 .85371)" gradientUnits="userSpaceOnUse"><stop stop-color="#24E28B" offset="0%"/><stop stop-color="#1FC6C1" offset="100%"/></linearGradient><path d="M194.458 92.195c0 1.929-.624 3.394-.624 3.394-10.213 27.77-36.943 46.42-66.56 46.42a70.506 70.506 0 0 1-28.226-5.874s-12.23 5.872-28.164 5.872C31.736 142.007 0 110.282 0 71.145 0 32.01 31.736.285 70.884.285c16.286 0 28.164 5.872 28.164 5.872A70.506 70.506 0 0 1 127.273.283c29.618 0 56.348 18.65 66.561 46.42 0 0 .624 1.464.624 3.393 0 1.343-.302 2.91-1.325 4.363-1.722 2.444-4.728 3.95-8.148 3.97h-46.26c-7.692 0-10.867-8.887-10.867-8.887-5.392-14.191-15.823-25.55-28.795-32.333C79.645 27.4 66.36 47.745 66.355 71.145c.005 23.402 13.29 43.749 32.708 53.938 12.972-6.782 23.403-18.142 28.795-32.333 0 0 3.175-8.888 10.867-8.888h46.26c3.42.02 6.426 1.527 8.148 3.97 1.023 1.455 1.325 3.021 1.325 4.363zm-58.126-48.347c-5.398-12.911-14.434-23.677-25.635-31.278a60.694 60.694 0 0 1 16.576-2.311c24.843 0 47.318 15.273 56.538 38.195h-42.372c-3.323 0-5.107-4.606-5.107-4.606zM9.98 71.145C9.987 37.572 37.312 10.26 70.898 10.26c5.68 0 11.233.804 16.535 2.308C68.708 25.332 56.385 46.83 56.375 71.145c.01 24.315 12.333 45.815 31.058 58.58a60.497 60.497 0 0 1-16.535 2.308c-33.586 0-60.911-27.313-60.918-60.888zm100.717 58.577c11.201-7.602 20.237-18.367 25.635-31.279 0 0 1.784-4.604 5.107-4.604h42.372c-9.22 22.921-31.695 38.194-56.538 38.194a60.74 60.74 0 0 1-16.576-2.311z" id="c"/></defs><g transform="translate(-.91 -.683)" fill="none" fill-rule="evenodd"><g transform="translate(670.72 32.353)"><mask id="b" fill="#fff"><use xlink:href="#a" width="100%" height="100%"/></mask><path d="M33.238 43.054c18.396 0 25.018 1.119 25.018 11.703 0 9.664-9.385 13.73-22.89 13.73-10.836 0-17.965-1.364-22.072-4.848-3.341-3.028-3.108-7.554-3.108-7.554 0-1.951-1.582-3.215-3.534-3.215H3.887C.48 52.87.364 55.987.364 55.987c0 11.242 7.474 16.197 7.474 16.197 5.926 4.004 14.947 5.85 27.528 5.85 19.665 0 32.825-8.5 32.825-23.47 0-16.207-9.85-21.175-34.906-21.175-10.712 0-15.854-2.735-15.854-2.735-6.254-2.756-5.905-8.581-5.905-8.581 0-6.808 5.905-9.314 5.905-9.314 1.755-.854 7.016-2.549 15.854-2.549 8.485 0 14.459 1.815 16.216 2.668 0 0 5.52 2.408 5.927 7.795.14 1.85 1.582 2.997 3.534 2.997h2.765c3.48 0 3.413-3.118 3.413-3.118 0-4.459-2.32-10.039-7.312-13.904-3.966-3.065-8.97-4.81-14.674-5.553-3.39-.442-6.404-.55-9.92-.55-3.703 0-6.11.17-9.707.637-5.848.73-10.915 2.814-14.424 5.466 0 0-7.54 4.933-7.54 15.425 0 0-.52 9.125 7.54 15.095 0 0 6.444 5.886 24.135 5.886" mask="url(#b)" fill="#828796"/></g><use xlink:href="#c" transform="translate(.91 .4)" width="100%" height="100%" fill="url(#d)"/></g></svg>